<?xml version="1.0" encoding="utf-8"?>
<!-- Generator: Adobe Illustrator 26.1.0, SVG Export Plug-In . SVG Version: 6.00 Build 0)  -->
<svg version="1.1" id="Layer_1" xmlns="http://www.w3.org/2000/svg" xmlns:xlink="http://www.w3.org/1999/xlink" x="0px" y="0px"
	 viewBox="0 0 800 800" style="enable-background:new 0 0 800 800;" xml:space="preserve">
<style type="text/css">
	.st0{fill:#FFFAED;}
	.st1{fill:#B2534E;}
	.st2{fill:#9B3A33;}
	.st3{fill:#E47F5C;}
	.st4{fill:#FDB09E;}
	.st5{fill:#FFFFFF;}
	.st6{fill:#303A69;}
	.st7{fill:#FFFFFF;stroke:#FFFFFF;stroke-width:0.5407;stroke-miterlimit:10;}
	.st8{stroke:#FFFFFF;stroke-width:0.5407;stroke-miterlimit:10;}
</style>
<g>
	<g>
		<path class="st5" d="M159.52,378.76c5.71,0,6.42-0.69,6.42,5.74v2.87c0,0.95,1.25,1.29,1.74,0.48c2.4-4.04,4.74-8.15,6.47-11.22
			v-3.93c0-0.83-0.83-0.95-1.43-0.59c-4.04,1.9-8.8,3.33-13.09,4.52C157.74,377.09,158.33,378.76,159.52,378.76z"/>
		<path class="st5" d="M202.36,375.31c-3.33-2.38-7.02-3.45-10.71-3.45c-6.9,0-13.8,3.81-17.49,10.35v-0.02
			c-2.37,4.16-5.41,9.2-8.21,13.72v23.42c0,6.31-3.45,5.24-7.5,5.95c-1.07,0.24-1.07,2.02,0.12,2.02h22.96
			c1.19,0,1.19-1.78,0.12-2.02c-4.05-0.71-7.5,0.36-7.5-5.95v-27.96c0-9.04,8.21-15.59,15.11-15.59c3.33,0,6.3,1.55,7.85,5.35
			c0.95,2.38,2.5,3.33,4.04,3.33C204.73,384.47,208.07,379.47,202.36,375.31z"/>
	</g>
	<path class="st5" d="M276.35,374.59c-3.93,0.71-7.97,0-10.47,5.95c0,0,0-0.12,0-0.24c-1.9,4.64-3.81,9.16-5.71,13.8l-11.54,27.36
		c-1.9,4.64-3.81,9.16-5.71,13.8c-3.57,8.45-9.04,14.63-18.32,14.63c-6.42,0-10.95-3.33-12.97-7.02c-2.26-4.28,0.36-7.02,3.09-7.02
		c1.79,0,3.57,1.19,4.05,3.81c0.71,4.16,2.5,6.66,6.9,6.66c8.09,0,11.78-7.26,14.51-13.68c1.43-3.69,0-6.9-0.95-9.04l-18.2-43.43
		c-2.5-5.83-6.42-4.88-10.35-5.59c-1.19-0.12-1.19-1.9,0.12-1.9h24.63c1.19,0,1.19,1.78,0.12,1.9c-3.81,0.71-7.26,0.24-5.71,4.76
		c6.07,14.4,7.5,18.68,14.99,36.29c0.71,1.78,1.55,1.78,2.26,0l15.23-36.17c1.67-4.76-3.69-4.16-7.61-4.88
		c-1.07-0.12-1.07-1.9,0.12-1.9h21.42C277.54,372.69,277.54,374.47,276.35,374.59z"/>
	<path class="st5" d="M338.57,399.7c0,16.42-10.47,28.79-27.24,28.79c-7.26,0-12.73-2.74-16.06-6.78v27.36
		c0,6.31,3.57,5.35,7.5,6.07c1.19,0.12,1.19,2.02-0.12,2.02h-22.84c-1.19,0-1.31-1.9-0.12-2.02c4.04-0.71,7.5,0.24,7.5-6.07v-63.29
		c0-6.42-0.83-6.31-6.42-6.31c-1.19,0-1.79-1.67,0.12-2.14c4.28-1.19,9.04-2.5,13.09-4.52c0.59-0.36,1.31-0.24,1.31,0.59V379
		c4.4-4.88,10.59-7.14,18.44-7.14C329.29,371.86,338.57,384.11,338.57,399.7z M329.64,400.29c0.36-12.73-5.83-25.1-19.63-25.1
		c-7.5,0-14.75,5.35-14.75,10.11v24.39c0,12.02,7.85,16.06,15.11,15.94C321.91,425.63,329.29,412.9,329.64,400.29z"/>
	<path class="st5" d="M374.13,425.4c-4.04,2.02-8.57,3.33-12.49,3.33c-6.42,0-11.66-3.57-11.54-13.44v-39.5h-7.61
		c-2.02,0-2.02-2.62,0-2.62c9.04-0.12,12.26-2.62,12.85-16.06c0-0.95,0.71-1.43,1.43-1.43c0.71,0,1.43,0.48,1.43,1.43
		c0,5.35,0,10.71,0,16.06c2.14,0,5,0,8.92,0c2.14,0,2.14,2.62,0,2.62h-8.92v39.26c0,7.14,2.38,9.88,6.78,9.88
		c2.26,0,5-0.71,8.21-2.02C375.08,422.06,376.15,424.44,374.13,425.4z"/>
	<path class="st5" d="M405.18,428.49c-36.64,0-36.64-56.63,0-56.63C441.94,371.86,441.94,428.49,405.18,428.49z M405.18,374.24
		c-24.87,0-24.75,51.87,0,51.87C429.92,426.11,430.04,374.24,405.18,374.24z"/>
	<path class="st5" d="M631.19,427.3h-22.96c-1.19,0-1.19-1.78-0.12-2.02c4.05-0.71,7.5,0.36,7.5-5.95v-31.65
		c0-7.73-6.3-11.3-13.32-11.3c-8.21,0-17.37,5.12-17.37,14.63v28.32c0,6.31,3.45,5.24,7.5,5.95c1.19,0.24,1.07,2.02-0.12,2.02
		h-22.84c-1.31,0-1.31-1.78-0.12-2.02c3.93-0.71,7.38,0.36,7.38-5.95v-34.26c0-6.42-0.71-6.3-6.42-6.3c-1.19,0-1.78-1.67,0.12-2.14
		c4.4-1.19,9.16-2.62,13.09-4.52c0.59-0.36,1.43-0.24,1.43,0.59v9.04c4.16-6.66,12.13-9.87,19.75-9.87
		c9.87,0,19.15,5.35,19.15,15.82v31.65c0,6.31,3.45,5.24,7.5,5.95C632.38,425.51,632.38,427.3,631.19,427.3z"/>
	<path class="st5" d="M686.38,427.3c-1.31,0.36-2.74,0.59-4.16,0.59c-3.93,0-7.73-1.55-7.73-6.78c0-2.02,0-4.05,0-5.95
		c-2.74,7.14-9.28,13.21-21.18,13.21c-10.59,0-16.42-6.54-16.42-13.44c0.12-14.28,16.42-17.13,27.84-17.73
		c5.59-0.36,9.75-0.12,9.75-0.95c0-3.09,0-6.19,0-9.4c0-8.33-7.02-11.9-14.28-11.9c-3.09,0-6.07,0.59-8.69,1.78
		c-4.76,2.38-4.4,7.02-2.97,10.23c1.67,3.93-0.95,6.54-3.57,6.54c-2.26,0-4.52-1.78-4.64-6.07c0-0.95,0.24-1.9,0.59-2.98
		c0-0.12,0-0.12,0-0.24c0.12-0.24,0.24-0.48,0.36-0.71c0.36-1.07,0.83-2.26,1.55-3.09c0.48-0.71,0.95-1.31,1.43-1.9
		c0.12-0.12,0.12-0.12,0.24-0.12c0.36-0.59,0.83-0.95,1.31-1.31c4.28-3.57,10.35-5.35,16.3-5.35c10.35,0,20.46,5.23,20.46,15.11
		c0,10.47,0,22.25,0,32.84c0,4.88,1.43,5.71,3.69,5.71C687.46,425.4,687.69,426.94,686.38,427.3z M674.49,402.91
		c0-1.31,0-2.5,0-3.69c-10.23,0-28.32,0.95-28.32,15.82c0,5.24,3.69,9.52,9.64,9.52C663.07,424.56,674.13,420.16,674.49,402.91z"/>
	<path class="st5" d="M716,427.3h-22.84c-1.19,0-1.31-1.78-0.12-2.02c4.05-0.71,7.5,0.36,7.5-5.95v-63.41
		c0-6.31-0.83-6.31-6.42-6.31c-1.19,0-1.78-1.55,0.12-2.14c4.28-1.07,9.04-2.5,12.97-4.4c0.71-0.36,1.43-0.36,1.43,0.48v75.79
		c0,6.31,3.57,5.24,7.5,5.95C717.31,425.51,717.31,427.3,716,427.3z"/>
	<path class="st5" d="M173.33,383.8c-0.57,1.02-1.22,2-1.83,3c-0.62,1.02-1.24,2.05-1.85,3.07c-1.25,2.07-2.5,4.14-3.79,6.18
		c-1.29,2.05-2.62,4.08-4.01,6.07c-1.38,1.98-2.82,3.91-4.35,5.78c-1.51,1.85-3.11,3.62-4.81,5.3c-1.7,1.67-3.52,3.22-5.43,4.65
		c-2.12,1.59-4.38,2.99-6.75,4.18c-1.13,0.57-2.26,1.07-3.45,1.48c-0.96,0.33-1.94,0.6-2.92,0.83c-2.3,0.54-4.66,0.83-7.01,0.97
		c-1.05,0.06-2.11,0.09-3.16,0.09c-41.64,0-40.69-71.86,0-71.86c3.93,0,8.92,0.36,12.73,1.67c7.73,3.57,6.42,7.5,7.97,10.59
		c1.31,2.5,3.21,3.45,4.88,3.45c3.45,0,6.42-4.28,2.62-8.8c-2.14-2.5-8.81-6.54-12.14-7.26c-4.64-1.67-9.99-2.74-16.06-2.74
		c-54.61,0-54.61,77.93,0,77.93c2.69,0,5.38-0.2,8.03-0.64c2.57-0.44,5.1-1.11,7.53-2.06c2.37-0.93,4.64-2.1,6.81-3.43
		c1.91-1.18,3.72-2.5,5.44-3.93c1.71-1.43,3.32-2.97,4.84-4.6c1.53-1.63,2.97-3.35,4.33-5.13c1.37-1.79,2.67-3.64,3.91-5.53
		c1.24-1.9,2.43-3.83,3.57-5.79c1.14-1.96,2.23-3.94,3.31-5.93c1.06-1.97,2.1-3.95,3.14-5.93c0.11-0.21,0.22-0.41,0.32-0.62
		C175.78,383.57,173.97,382.65,173.33,383.8z"/>
	<path class="st5" d="M562.55,425.4c-2.26,0-3.69-0.83-3.69-5.71c0-10.59,0-22.37,0-32.84c0-9.88-10.11-15.11-20.46-15.11
		c-5.95,0-12.02,1.78-16.3,5.35c-0.48,0.36-0.95,0.71-1.31,1.31c-0.12,0-0.12,0-0.24,0.12c-0.48,0.59-0.95,1.19-1.43,1.9
		c-0.71,0.83-1.19,2.02-1.55,3.09c-0.12,0.24-0.24,0.48-0.36,0.71c0,0.12,0,0.12,0,0.24c-0.36,1.07-0.59,2.02-0.59,2.98
		c0.12,4.28,2.38,6.07,4.64,6.07c2.62,0,5.24-2.62,3.57-6.54c-1.43-3.21-1.78-7.85,2.97-10.23c2.62-1.19,5.59-1.78,8.69-1.78
		c7.26,0,14.28,3.57,14.28,11.9c0,3.21,0,6.3,0,9.4c0,0.38-0.76,0.46-1.01,0.5c-0.92,0.15-1.86,0.16-2.79,0.2
		c-3.53,0.13-7.04,0.3-10.57,0.56c-2.33,0.17-4.64,0.56-6.87,1.24c-3.12,0.95-6.14,2.22-8.92,3.91c-4.91,2.99-8.46,7.43-12.44,11.49
		c-4.09,4.17-8.69,7.54-14.29,9.34c-5.44,1.75-11.33,2.32-16.99,1.43c-2.53-0.4-5.02-1.11-7.36-2.18c-5.56-2.57-10.01-7-13-12.3
		c-3.09-5.46-4.69-11.7-5.05-17.94c-0.37-6.33,0.53-12.78,2.8-18.71c2.17-5.67,5.68-10.91,10.55-14.61
		c5.02-3.81,11.18-5.64,17.45-5.64c3.93,0,8.92,0.36,12.73,1.67c7.73,3.57,6.42,7.5,7.97,10.59c1.31,2.5,3.21,3.45,4.88,3.45
		c3.45,0,6.42-4.28,2.62-8.8c-2.14-2.5-8.81-6.54-12.14-7.26c-4.64-1.67-9.99-2.74-16.06-2.74c-54.61,0-54.61,77.93,0,77.93
		c3.86,0,7.76-0.48,11.56-1.47c2.39-0.62,4.72-1.44,6.95-2.48c3.44-1.6,6.63-3.71,9.53-6.15c2.86-2.4,5.2-5.28,7.97-7.77
		c2.11-1.9,4.36-3.65,6.75-5.17c3.38-2.14,7.06-3.81,10.96-4.75c1.45-0.35,2.91-0.61,4.38-0.81c0.6-0.08,1.2-0.16,1.8-0.21
		c1.59-0.15,3.19-0.12,4.77-0.25c0.3-0.03,3.82-0.13,3.82-0.09c0,1.19,0,2.38,0,3.69c-0.36,17.25-11.42,21.65-18.68,21.65
		c-5.15,0-8.6-3.22-9.43-7.48c-0.15-0.78-0.14-1.62-0.11-2.41c0.01-0.3,0.03-0.6,0.06-0.89c0.03-0.22,0.09-0.44,0.04-0.66
		c-0.08-0.33-0.34-0.6-0.67-0.69c-0.34-0.1-0.7,0.01-0.94,0.28c-1.45,1.61-3,3.11-4.35,4.65c-0.87,0.97-1.69,1.91-2.41,2.79
		c2.22,4.6,7.54,8.22,15.31,8.22c11.9,0,18.44-6.07,21.18-13.21c0,1.9,0,3.93,0,5.95c0,5.23,3.81,6.78,7.73,6.78
		c1.43,0,2.86-0.24,4.16-0.59C563.97,426.94,563.74,425.4,562.55,425.4z"/>
</g>
</svg>
