<?xml version="1.0" encoding="utf-8"?>
<!-- Generator: Adobe Illustrator 26.1.0, SVG Export Plug-In . SVG Version: 6.00 Build 0)  -->
<svg version="1.1" id="Layer_1" xmlns="http://www.w3.org/2000/svg" xmlns:xlink="http://www.w3.org/1999/xlink" x="0px" y="0px"
	 viewBox="0 0 800 800" style="enable-background:new 0 0 800 800;" xml:space="preserve">
<style type="text/css">
	.st0{fill:#FFFAED;}
	.st1{fill:#B2534E;}
	.st2{fill:#9B3A33;}
	.st3{fill:#E47F5C;}
	.st4{fill:#FDB09E;}
	.st5{fill:#FFFFFF;}
	.st6{fill:#303A69;}
	.st7{fill:#FFFFFF;stroke:#FFFFFF;stroke-width:0.5407;stroke-miterlimit:10;}
	.st8{stroke:#FFFFFF;stroke-width:0.5407;stroke-miterlimit:10;}
</style>
<g>
	<g>
		<path class="st5" d="M349.64,558.37c-14.11-2.31-27.4-4.8-39.99-7.44c8.81,10.85,22.19,17.83,37.25,17.83h7.78
			C352.66,565.5,350.97,562.02,349.64,558.37z"/>
		<g>
			<path class="st5" d="M350.89,516.49c-45.68-54.05-95.92-123.19-108.39-177.93c-13.24-2.82-26.06,0.38-37.84,11.95
				c-54.51,53.53,69.12,132.35,143.78,172.83C349.12,520.99,349.93,518.7,350.89,516.49z"/>
			<path class="st5" d="M346.22,539.93c-80.43-43.01-132.76-82.64-156.3-118.29c-5.38,3.48-9.98,8.64-13.59,15.86
				c-30.36,60.65,94.59,91.56,169.99,104.42C346.29,541.26,346.23,540.6,346.22,539.93z"/>
		</g>
		<path class="st5" d="M366.78,495.38c-22.39-70.76-43.11-157.05-35.39-216.65c-13.22-11.23-28.95-14.86-47.68-6.98
			c-76.08,32,17.41,160.91,75.89,230.77C361.79,499.93,364.18,497.53,366.78,495.38z"/>
		<path class="st5" d="M595.34,350.51c-11.72-11.51-24.46-14.73-37.63-11.99c-0.01,0.06-0.04,0.13-0.05,0.19
			c-0.64,2.85-1.39,5.77-2.24,8.74c-0.47,1.65-1.04,3.35-1.58,5.04c-0.59,1.83-1.2,3.67-1.86,5.55c-0.62,1.75-1.26,3.52-1.95,5.31
			c-0.8,2.09-1.68,4.22-2.58,6.35c-0.76,1.82-1.5,3.63-2.33,5.49c-1.46,3.27-3.03,6.61-4.7,10c-0.85,1.72-1.77,3.48-2.67,5.23
			c-1.23,2.39-2.5,4.8-3.82,7.25c-0.96,1.78-1.94,3.56-2.95,5.36c-1.67,2.96-3.43,5.97-5.24,9.01c-0.76,1.28-1.47,2.53-2.25,3.82
			c-2.55,4.19-5.26,8.47-8.06,12.8c-1.06,1.63-2.17,3.29-3.26,4.94c-2.07,3.12-4.19,6.27-6.39,9.47c-1.15,1.67-2.3,3.34-3.49,5.04
			c-2.9,4.14-5.9,8.33-9.02,12.59c-0.49,0.66-0.94,1.31-1.43,1.97c-3.61,4.9-7.41,9.91-11.31,14.97c-1.19,1.55-2.43,3.12-3.65,4.69
			c-2.98,3.82-6.04,7.68-9.18,11.59c-1.28,1.59-2.55,3.18-3.85,4.79c-3.6,4.43-7.34,8.94-11.13,13.48c1.46,2.71,2.67,5.57,3.68,8.51
			C531.4,479.51,648.69,402.9,595.34,350.51z"/>
		<path class="st5" d="M456.41,557.34c-1.38,4.03-3.21,7.85-5.42,11.42h2.77c15.15,0,28.59-7.06,37.4-18.01
			C480.17,553.07,468.57,555.26,456.41,557.34z"/>
		<path class="st5" d="M623.67,437.5c-3.61-7.22-8.22-12.39-13.61-15.86c-22.99,34.76-73.45,73.38-150.68,115.27
			c0.03,0.72,0.11,1.42,0.11,2.15c0,0.63-0.07,1.24-0.09,1.87C535.2,527.5,653.28,496.65,623.67,437.5z"/>
		<path class="st5" d="M434.22,491.92c3.21,2.14,6.18,4.6,8.89,7.34c58.6-70.54,148.09-196,73.18-227.51
			c-18.77-7.89-34.52-4.24-47.76,7.04C476.1,337.54,456.08,422.14,434.22,491.92z"/>
		<g>
			<circle class="st5" cx="402.84" cy="539.05" r="38.65"/>
		</g>
		<path class="st5" d="M402.84,482.39c5.97,0,11.71,0.94,17.12,2.66c28.85-92.78,69.5-262.75-19.99-262.75
			c-90.11,0-48.27,172.34-19.4,264.67C387.4,484.03,394.93,482.39,402.84,482.39z"/>
	</g>
</g>
</svg>
