<?xml version="1.0" encoding="utf-8"?>
<!-- Generator: Adobe Illustrator 26.1.0, SVG Export Plug-In . SVG Version: 6.00 Build 0)  -->
<svg version="1.1" id="Layer_1" xmlns="http://www.w3.org/2000/svg" xmlns:xlink="http://www.w3.org/1999/xlink" x="0px" y="0px"
	 viewBox="0 0 800 800" style="enable-background:new 0 0 800 800;" xml:space="preserve">
<style type="text/css">
	.st0{fill:#FFFAED;}
	.st1{fill:#B2534E;}
	.st2{fill:#9B3A33;}
	.st3{fill:#E47F5C;}
	.st4{fill:#FDB09E;}
	.st5{fill:#FFFFFF;}
	.st6{fill:#303A69;}
	.st7{fill:#FFFFFF;stroke:#FFFFFF;stroke-width:0.5407;stroke-miterlimit:10;}
	.st8{stroke:#FFFFFF;stroke-width:0.5407;stroke-miterlimit:10;}
</style>
<g>
	<g>
		<path d="M135.31,427.4c-3.09-0.51-6-1.05-8.76-1.63c1.93,2.38,4.86,3.91,8.16,3.91h1.7C135.97,428.96,135.6,428.2,135.31,427.4z"
			/>
		<g>
			<path d="M135.59,418.22c-10-11.84-21.01-26.98-23.74-38.97c-2.9-0.62-5.71,0.08-8.29,2.62c-11.94,11.72,15.14,28.99,31.49,37.85
				C135.2,419.21,135.38,418.71,135.59,418.22z"/>
			<path d="M134.56,423.36c-17.62-9.42-29.08-18.1-34.23-25.91c-1.18,0.76-2.19,1.89-2.98,3.47c-6.65,13.28,20.72,20.05,37.23,22.87
				C134.58,423.65,134.57,423.5,134.56,423.36z"/>
		</g>
		<path d="M139.07,413.6c-4.9-15.5-9.44-34.4-7.75-47.45c-2.9-2.46-6.34-3.25-10.44-1.53c-16.66,7.01,3.81,35.24,16.62,50.54
			C137.97,414.6,138.5,414.07,139.07,413.6z"/>
		<path d="M189.13,381.87c-2.57-2.52-5.36-3.23-8.24-2.63c0,0.01-0.01,0.03-0.01,0.04c-0.14,0.62-0.3,1.26-0.49,1.91
			c-0.1,0.36-0.23,0.73-0.35,1.1c-0.13,0.4-0.26,0.8-0.41,1.22c-0.14,0.38-0.28,0.77-0.43,1.16c-0.18,0.46-0.37,0.92-0.56,1.39
			c-0.17,0.4-0.33,0.79-0.51,1.2c-0.32,0.72-0.66,1.45-1.03,2.19c-0.19,0.38-0.39,0.76-0.58,1.15c-0.27,0.52-0.55,1.05-0.84,1.59
			c-0.21,0.39-0.42,0.78-0.65,1.17c-0.37,0.65-0.75,1.31-1.15,1.97c-0.17,0.28-0.32,0.55-0.49,0.84c-0.56,0.92-1.15,1.85-1.77,2.8
			c-0.23,0.36-0.47,0.72-0.71,1.08c-0.45,0.68-0.92,1.37-1.4,2.07c-0.25,0.37-0.5,0.73-0.76,1.1c-0.64,0.91-1.29,1.82-1.98,2.76
			c-0.11,0.15-0.2,0.29-0.31,0.43c-0.79,1.07-1.62,2.17-2.48,3.28c-0.26,0.34-0.53,0.68-0.8,1.03c-0.65,0.84-1.32,1.68-2.01,2.54
			c-0.28,0.35-0.56,0.7-0.84,1.05c-0.79,0.97-1.61,1.96-2.44,2.95c0.32,0.59,0.58,1.22,0.81,1.86
			C175.12,410.12,200.81,393.34,189.13,381.87z"/>
		<path d="M158.7,427.17c-0.3,0.88-0.7,1.72-1.19,2.5h0.61c3.32,0,6.26-1.55,8.19-3.94C163.9,426.24,161.36,426.72,158.7,427.17z"/>
		<path d="M195.33,400.92c-0.79-1.58-1.8-2.71-2.98-3.47c-5.04,7.61-16.09,16.07-33,25.25c0.01,0.16,0.02,0.31,0.02,0.47
			c0,0.14-0.02,0.27-0.02,0.41C175.96,420.63,201.82,413.88,195.33,400.92z"/>
		<path d="M153.84,412.84c0.7,0.47,1.35,1.01,1.95,1.61c12.83-15.45,32.44-42.93,16.03-49.83c-4.11-1.73-7.56-0.93-10.46,1.54
			C163.01,379.03,158.63,397.56,153.84,412.84z"/>
		<g>
			<circle cx="146.96" cy="423.16" r="8.46"/>
		</g>
		<path d="M146.96,410.76c1.31,0,2.57,0.21,3.75,0.58c6.32-20.32,15.22-57.55-4.38-57.55c-19.74,0-10.57,37.75-4.25,57.97
			C143.58,411.11,145.23,410.76,146.96,410.76z"/>
	</g>
	<g>
		<g>
			<path d="M278.3,386.39c4.36,0,4.9-0.53,4.9,4.38v2.19c0,0.72,0.96,0.99,1.33,0.37c1.83-3.08,3.62-6.22,4.94-8.56v-3
				c0-0.64-0.64-0.73-1.09-0.45c-3.09,1.45-6.72,2.54-9.99,3.45C276.94,385.12,277.39,386.39,278.3,386.39z"/>
			<path d="M310.98,383.75c-2.54-1.82-5.36-2.63-8.17-2.63c-5.27,0-10.53,2.9-13.34,7.9V389c-1.81,3.17-4.13,7.02-6.26,10.47v17.87
				c0,4.81-2.63,3.99-5.72,4.54c-0.82,0.18-0.82,1.54,0.09,1.54h17.52c0.91,0,0.91-1.36,0.09-1.54c-3.09-0.54-5.72,0.27-5.72-4.54
				v-21.33c0-6.9,6.26-11.89,11.53-11.89c2.54,0,4.81,1.18,5.99,4.09c0.73,1.82,1.91,2.54,3.09,2.54
				C312.8,390.74,315.34,386.93,310.98,383.75z"/>
		</g>
		<path d="M367.44,383.21c-3,0.54-6.08,0-7.99,4.54c0,0,0-0.09,0-0.18c-1.45,3.54-2.9,6.99-4.36,10.53l-8.81,20.88
			c-1.45,3.54-2.9,6.99-4.36,10.53c-2.72,6.44-6.9,11.17-13.98,11.17c-4.9,0-8.35-2.54-9.9-5.36c-1.72-3.27,0.27-5.36,2.36-5.36
			c1.36,0,2.72,0.91,3.09,2.9c0.54,3.18,1.91,5.08,5.27,5.08c6.17,0,8.99-5.54,11.07-10.44c1.09-2.81,0-5.27-0.73-6.9l-13.89-33.13
			c-1.91-4.45-4.9-3.72-7.9-4.27c-0.91-0.09-0.91-1.45,0.09-1.45h18.79c0.91,0,0.91,1.36,0.09,1.45c-2.9,0.54-5.54,0.18-4.36,3.63
			c4.63,10.98,5.72,14.25,11.44,27.69c0.54,1.36,1.18,1.36,1.72,0l11.62-27.6c1.27-3.63-2.81-3.18-5.81-3.72
			c-0.82-0.09-0.82-1.45,0.09-1.45h16.34C368.35,381.76,368.35,383.12,367.44,383.21z"/>
		<path d="M414.91,402.36c0,12.53-7.99,21.97-20.79,21.97c-5.54,0-9.71-2.09-12.26-5.17v20.88c0,4.81,2.72,4.09,5.72,4.63
			c0.91,0.09,0.91,1.54-0.09,1.54h-17.43c-0.91,0-1-1.45-0.09-1.54c3.09-0.54,5.72,0.18,5.72-4.63v-48.29c0-4.9-0.64-4.81-4.9-4.81
			c-0.91,0-1.36-1.27,0.09-1.63c3.27-0.91,6.9-1.91,9.99-3.45c0.45-0.27,1-0.18,1,0.45v4.27c3.36-3.72,8.08-5.45,14.07-5.45
			C407.83,381.12,414.91,390.47,414.91,402.36z M408.1,402.82c0.27-9.71-4.45-19.15-14.98-19.15c-5.72,0-11.26,4.09-11.26,7.72
			v18.61c0,9.17,5.99,12.25,11.53,12.16C402.2,422.15,407.83,412.44,408.1,402.82z"/>
		<path d="M442.05,421.97c-3.09,1.54-6.54,2.54-9.53,2.54c-4.9,0-8.9-2.72-8.81-10.26v-30.14h-5.81c-1.54,0-1.54-2,0-2
			c6.9-0.09,9.35-2,9.8-12.25c0-0.73,0.54-1.09,1.09-1.09c0.54,0,1.09,0.36,1.09,1.09c0,4.09,0,8.17,0,12.25c1.63,0,3.81,0,6.81,0
			c1.63,0,1.63,2,0,2h-6.81v29.96c0,5.45,1.82,7.54,5.18,7.54c1.72,0,3.81-0.55,6.26-1.54
			C442.78,419.43,443.59,421.25,442.05,421.97z"/>
		<path d="M465.74,424.33c-27.96,0-27.96-43.21,0-43.21C493.79,381.12,493.79,424.33,465.74,424.33z M465.74,382.94
			c-18.97,0-18.88,39.58,0,39.58C484.62,422.52,484.71,382.94,465.74,382.94z"/>
		<path d="M638.19,423.42h-17.52c-0.91,0-0.91-1.36-0.09-1.54c3.09-0.54,5.72,0.27,5.72-4.54v-24.15c0-5.9-4.81-8.62-10.17-8.62
			c-6.26,0-13.25,3.9-13.25,11.17v21.61c0,4.81,2.63,3.99,5.72,4.54c0.91,0.18,0.82,1.54-0.09,1.54h-17.43c-1,0-1-1.36-0.09-1.54
			c3-0.54,5.63,0.27,5.63-4.54V391.2c0-4.9-0.55-4.81-4.9-4.81c-0.91,0-1.36-1.27,0.09-1.63c3.36-0.91,6.99-2,9.99-3.45
			c0.45-0.27,1.09-0.18,1.09,0.45v6.9c3.18-5.08,9.26-7.53,15.07-7.53c7.53,0,14.62,4.09,14.62,12.07v24.15
			c0,4.81,2.63,3.99,5.72,4.54C639.1,422.06,639.1,423.42,638.19,423.42z"/>
		<path d="M680.31,423.42c-1,0.27-2.09,0.45-3.18,0.45c-3,0-5.9-1.18-5.9-5.17c0-1.54,0-3.09,0-4.54
			c-2.09,5.45-7.08,10.08-16.16,10.08c-8.08,0-12.53-4.99-12.53-10.26c0.09-10.89,12.53-13.07,21.24-13.53
			c4.27-0.27,7.44-0.09,7.44-0.73c0-2.36,0-4.72,0-7.17c0-6.36-5.36-9.08-10.89-9.08c-2.36,0-4.63,0.45-6.63,1.36
			c-3.63,1.82-3.36,5.36-2.27,7.81c1.27,3-0.73,4.99-2.72,4.99c-1.72,0-3.45-1.36-3.54-4.63c0-0.73,0.18-1.45,0.45-2.27
			c0-0.09,0-0.09,0-0.18c0.09-0.18,0.18-0.36,0.27-0.55c0.27-0.82,0.64-1.72,1.18-2.36c0.36-0.54,0.73-1,1.09-1.45
			c0.09-0.09,0.09-0.09,0.18-0.09c0.27-0.45,0.64-0.73,1-1c3.27-2.72,7.9-4.09,12.44-4.09c7.9,0,15.61,3.99,15.61,11.53
			c0,7.99,0,16.98,0,25.05c0,3.72,1.09,4.36,2.81,4.36C681.12,421.97,681.31,423.15,680.31,423.42z M671.23,404.81
			c0-1,0-1.91,0-2.81c-7.81,0-21.61,0.73-21.61,12.07c0,3.99,2.81,7.26,7.35,7.26C662.51,421.34,670.96,417.98,671.23,404.81z"/>
		<path d="M702.91,423.42h-17.43c-0.91,0-1-1.36-0.09-1.54c3.09-0.54,5.72,0.27,5.72-4.54v-48.39c0-4.81-0.64-4.81-4.9-4.81
			c-0.91,0-1.36-1.18,0.09-1.63c3.27-0.82,6.9-1.91,9.9-3.36c0.54-0.27,1.09-0.27,1.09,0.36v57.83c0,4.81,2.72,3.99,5.72,4.54
			C703.9,422.06,703.9,423.42,702.91,423.42z"/>
		<path d="M288.83,390.23c-0.44,0.78-0.93,1.53-1.39,2.29c-0.47,0.78-0.94,1.56-1.41,2.35c-0.95,1.58-1.91,3.16-2.89,4.72
			c-0.99,1.57-2,3.11-3.06,4.63c-1.05,1.51-2.15,2.98-3.32,4.41c-1.15,1.41-2.37,2.77-3.67,4.04c-1.3,1.28-2.68,2.46-4.14,3.55
			c-1.62,1.21-3.34,2.28-5.15,3.19c-0.86,0.43-1.72,0.82-2.63,1.13c-0.73,0.25-1.48,0.46-2.23,0.63c-1.76,0.41-3.55,0.64-5.35,0.74
			c-0.8,0.05-1.61,0.07-2.41,0.07c-31.77,0-31.05-54.83,0-54.83c3,0,6.81,0.27,9.71,1.27c5.9,2.72,4.9,5.72,6.08,8.08
			c1,1.91,2.45,2.63,3.72,2.63c2.63,0,4.9-3.27,2-6.72c-1.63-1.91-6.72-4.99-9.26-5.54c-3.54-1.27-7.63-2.09-12.25-2.09
			c-41.67,0-41.67,59.46,0,59.46c2.05,0,4.11-0.15,6.13-0.49c1.96-0.33,3.89-0.85,5.74-1.57c1.81-0.71,3.54-1.6,5.19-2.62
			c1.45-0.9,2.84-1.91,4.15-3c1.3-1.09,2.53-2.27,3.7-3.51c1.17-1.25,2.27-2.56,3.31-3.91c1.05-1.37,2.04-2.78,2.98-4.22
			c0.95-1.45,1.85-2.92,2.72-4.42c0.87-1.49,1.71-3,2.52-4.52c0.81-1.5,1.6-3.01,2.39-4.52c0.08-0.16,0.16-0.31,0.25-0.47
			C290.7,390.06,289.33,389.36,288.83,390.23z"/>
		<path d="M585.81,421.97c-1.72,0-2.81-0.64-2.81-4.36c0-8.08,0-17.07,0-25.05c0-7.54-7.72-11.53-15.61-11.53
			c-4.54,0-9.17,1.36-12.44,4.09c-0.36,0.27-0.73,0.54-1,1c-0.09,0-0.09,0-0.18,0.09c-0.36,0.45-0.73,0.91-1.09,1.45
			c-0.54,0.63-0.91,1.54-1.18,2.36c-0.09,0.18-0.18,0.36-0.27,0.55c0,0.09,0,0.09,0,0.18c-0.27,0.82-0.45,1.54-0.45,2.27
			c0.09,3.27,1.82,4.63,3.54,4.63c2,0,3.99-2,2.72-4.99c-1.09-2.45-1.36-5.99,2.27-7.81c2-0.91,4.27-1.36,6.63-1.36
			c5.54,0,10.89,2.72,10.89,9.08c0,2.45,0,4.81,0,7.17c0,0.29-0.58,0.35-0.77,0.38c-0.7,0.11-1.42,0.13-2.13,0.15
			c-2.69,0.1-5.38,0.23-8.06,0.43c-1.77,0.13-3.54,0.43-5.24,0.95c-2.38,0.72-4.68,1.69-6.81,2.99c-3.75,2.28-6.46,5.67-9.49,8.77
			c-3.12,3.18-6.63,5.75-10.9,7.12c-4.15,1.33-8.65,1.77-12.96,1.09c-1.93-0.31-3.83-0.85-5.61-1.67c-4.24-1.96-7.63-5.34-9.92-9.38
			c-2.36-4.16-3.58-8.93-3.86-13.69c-0.28-4.83,0.4-9.75,2.13-14.28c1.66-4.33,4.34-8.32,8.05-11.15c3.83-2.91,8.53-4.3,13.31-4.3
			c3,0,6.81,0.27,9.71,1.27c5.9,2.72,4.9,5.72,6.08,8.08c1,1.91,2.45,2.63,3.72,2.63c2.63,0,4.9-3.27,2-6.72
			c-1.63-1.91-6.72-4.99-9.26-5.54c-3.54-1.27-7.63-2.09-12.25-2.09c-41.67,0-41.67,59.46,0,59.46c2.95,0,5.92-0.37,8.82-1.12
			c1.82-0.48,3.6-1.1,5.31-1.89c2.62-1.22,5.06-2.83,7.27-4.69c2.18-1.83,3.97-4.03,6.08-5.93c1.61-1.45,3.32-2.78,5.15-3.94
			c2.58-1.64,5.39-2.91,8.36-3.63c1.1-0.27,2.22-0.47,3.34-0.62c0.46-0.06,0.91-0.12,1.37-0.16c1.21-0.11,2.43-0.09,3.64-0.19
			c0.23-0.02,2.92-0.1,2.92-0.07c0,0.91,0,1.82,0,2.81c-0.27,13.16-8.71,16.52-14.25,16.52c-3.93,0-6.56-2.46-7.2-5.71
			c-0.12-0.59-0.1-1.23-0.08-1.84c0.01-0.23,0.02-0.46,0.05-0.68c0.02-0.17,0.07-0.34,0.03-0.51c-0.06-0.25-0.26-0.45-0.51-0.52
			c-0.26-0.07-0.54,0.01-0.72,0.21c-1.1,1.23-2.29,2.37-3.32,3.55c-0.66,0.74-1.29,1.46-1.84,2.13c1.69,3.51,5.76,6.27,11.68,6.27
			c9.08,0,14.07-4.63,16.16-10.08c0,1.45,0,3,0,4.54c0,3.99,2.91,5.17,5.9,5.17c1.09,0,2.18-0.18,3.18-0.45
			C586.9,423.15,586.72,421.97,585.81,421.97z"/>
	</g>
</g>
</svg>
